<svg xmlns:xlink="http://www.w3.org/1999/xlink" xmlns="http://www.w3.org/2000/svg" width="72" height="72" viewBox="0 0 72 72" fill="none">
<g filter="url(#filter0_d)">
<path d="M39.6864 48.0327C39.5192 47.5337 39.0512 47.197 38.526 47.197H31.1907C30.6655 47.197 30.1974 47.5337 30.0303 48.0327L27.5852 55.3679C27.4611 55.7404 27.5231 56.1511 27.7548 56.4699C27.984 56.7887 28.3517 56.9774 28.7457 56.9774H40.971C41.365 56.9774 41.7328 56.7888 41.9619 56.4699C42.1936 56.1512 42.2557 55.7405 42.1315 55.3679L39.6864 48.0327ZM54.3568 48.0327C54.1897 47.5337 53.7217 47.197 53.1964 47.197H45.8612C45.3359 47.197 44.8678 47.5337 44.7008 48.0327L42.2557 55.3679C42.1315 55.7404 42.1936 56.1511 42.4252 56.4699C42.6545 56.7887 43.0221 56.9774 43.4161 56.9774H55.6415C56.0355 56.9774 56.4032 56.7888 56.6324 56.4699C56.864 56.1512 56.9261 55.7405 56.8019 55.3679L54.3568 48.0327ZM43.4161 44.7519H55.6415C56.0355 44.7519 56.4032 44.5633 56.6324 44.2445C56.864 43.9257 56.9261 43.515 56.8019 43.1425L54.3568 35.8073C54.1897 35.3082 53.7217 34.9716 53.1964 34.9716H45.8612C45.3359 34.9716 44.8678 35.3082 44.7008 35.8073L42.2557 43.1425C42.1315 43.515 42.1936 43.9257 42.4252 44.2445C42.6544 44.5633 43.0221 44.7519 43.4161 44.7519ZM42.0306 28.6959C42.0306 21.2808 35.9967 15.248 28.5827 15.248C21.1686 15.248 15.1348 21.2807 15.1348 28.6959C15.1348 36.1112 21.1686 42.1438 28.5827 42.1438C35.9967 42.1438 42.0306 36.1111 42.0306 28.6959Z" fill="#278177"/>
<path d="M23.6925 51.9244H21.2474C20.574 51.9244 20.0248 51.3764 20.0248 50.7018V46.3179L20.3831 46.6761C20.8606 47.1536 21.6342 47.1536 22.1118 46.6761C22.5893 46.1986 22.5893 45.4249 22.1118 44.9474L19.6682 42.5038C19.1909 42.0253 18.4108 42.0283 17.9364 42.5038L15.4929 44.9473C15.0154 45.4248 15.0154 46.1985 15.4929 46.676C15.9704 47.1536 16.7441 47.1536 17.2217 46.676L17.5798 46.3179V50.7018C17.5798 52.7242 19.225 54.3695 21.2474 54.3695H23.6925C24.3682 54.3695 24.915 53.8227 24.915 53.1469C24.915 52.4712 24.3682 51.9244 23.6925 51.9244ZM56.5057 25.3867C56.0282 24.9092 55.2545 24.9092 54.777 25.3867L54.4189 25.7449V21.361C54.4189 19.3386 52.7737 17.6934 50.7513 17.6934H48.3062C47.6305 17.6934 47.0837 18.2402 47.0837 18.9159C47.0837 19.5916 47.6305 20.1384 48.3062 20.1384H50.7513C51.4246 20.1384 51.9738 20.6865 51.9738 21.361V25.7449L51.6156 25.3867C51.1381 24.9092 50.3644 24.9092 49.8868 25.3867C49.4093 25.8642 49.4093 26.6379 49.8868 27.1154L52.3305 29.5591C52.7956 30.0254 53.5743 30.0482 54.0622 29.5591L56.5058 27.1154C56.9833 26.6379 56.9833 25.8643 56.5057 25.3867ZM32.2502 22.8087V21.361C32.2502 20.6852 31.7034 20.1384 31.0277 20.1384C30.3519 20.1384 29.8051 20.6852 29.8051 21.361V22.5835H27.3601V21.361C27.3601 20.6852 26.8133 20.1384 26.1375 20.1384C25.4618 20.1384 24.915 20.6852 24.915 21.361V22.5835H23.6925C23.0167 22.5835 22.4699 23.1303 22.4699 23.806C22.4699 24.4818 23.0167 25.0286 23.6925 25.0286H24.915V32.3638H23.6925C23.0167 32.3638 22.4699 32.9106 22.4699 33.5863C22.4699 34.2621 23.0167 34.8089 23.6925 34.8089H24.915V36.0314C24.915 36.7071 25.4618 37.2539 26.1375 37.2539C26.8133 37.2539 27.3601 36.7071 27.3601 36.0314V34.8089H29.8051V36.0314C29.8051 36.7071 30.3519 37.2539 31.0277 37.2539C31.7034 37.2539 32.2502 36.7071 32.2502 36.0314V34.5837C33.6703 34.0773 34.6953 32.733 34.6953 31.1413C34.6953 30.1985 34.3279 29.3466 33.7414 28.6962C34.3279 28.0458 34.6953 27.1939 34.6953 26.2511C34.6953 24.6594 33.6703 23.3151 32.2502 22.8087ZM31.0277 32.3638H27.3601V29.9187H31.0277C31.701 29.9187 32.2502 30.4667 32.2502 31.1413C32.2502 31.8158 31.701 32.3638 31.0277 32.3638ZM31.0277 27.4737H27.3601V25.0286H31.0277C31.701 25.0286 32.2502 25.5766 32.2502 26.2511C32.2502 26.9256 31.701 27.4737 31.0277 27.4737Z" fill="#82E8C9"/>
</g>
<defs>
<filter id="filter0_d" x="0.134766" y="0.248047" width="71.7299" height="71.7293" filterUnits="userSpaceOnUse" color-interpolation-filters="sRGB">
<feFlood flood-opacity="0" result="BackgroundImageFix"/>
<feColorMatrix in="SourceAlpha" type="matrix" values="0 0 0 0 0 0 0 0 0 0 0 0 0 0 0 0 0 0 127 0" result="hardAlpha"/>
<feOffset/>
<feGaussianBlur stdDeviation="7.5"/>
<feColorMatrix type="matrix" values="0 0 0 0 0.0451216 0 0 0 0 0.470833 0 0 0 0 0.470833 0 0 0 0.25 0"/>
<feBlend mode="normal" in2="BackgroundImageFix" result="effect1_dropShadow"/>
<feBlend mode="normal" in="SourceGraphic" in2="effect1_dropShadow" result="shape"/>
</filter>
</defs>
</svg>