<svg xmlns:xlink="http://www.w3.org/1999/xlink" xmlns="http://www.w3.org/2000/svg" width="72" height="72" viewBox="0 0 106 106" fill="none">
<g filter="url(#filter0_d)">
<path d="M52.9999 91C66.5265 91 77.492 80.0345 77.492 66.5079C77.492 52.9813 66.5265 42.0159 52.9999 42.0159C39.4733 42.0159 28.5078 52.9813 28.5078 66.5079C28.5078 80.0345 39.4733 91 52.9999 91Z" fill="#278177"/>
<path d="M90.3479 33.7617L81.4417 24.8555C80.572 23.9858 79.1628 23.9858 78.2932 24.8555L69.3869 33.7617C68.7499 34.3988 68.5585 35.3555 68.9042 36.1884C69.2477 37.0211 70.061 37.5626 70.9611 37.5626H75.4142V48.6954C75.4142 49.926 76.4101 50.9219 77.6408 50.9219H82.0939C83.3246 50.9219 84.3204 49.926 84.3204 48.6954V37.5626H88.7735C89.6737 37.5626 90.4869 37.0212 90.8304 36.1884C91.1763 35.3555 90.9849 34.3988 90.3479 33.7617ZM44.094 28.3594H48.5471V35.3359C48.5471 36.5666 49.543 37.5624 50.7737 37.5624H55.2268C56.4575 37.5624 57.4534 36.5666 57.4534 35.3359V28.3594H61.9065C62.8066 28.3594 63.6199 27.818 63.9634 26.9851C64.3091 26.1524 64.1177 25.1956 63.4806 24.5585L54.5744 15.6523C53.7047 14.7826 52.2956 14.7826 51.4259 15.6523L42.5197 24.5585C41.8826 25.1956 41.6913 26.1522 42.037 26.9851C42.3806 27.818 43.1939 28.3594 44.094 28.3594ZM27.7075 24.8555C26.8378 23.9858 25.4287 23.9858 24.559 24.8555L15.6528 33.7617C15.0157 34.3988 14.8244 35.3555 15.1701 36.1884C15.5136 37.0211 16.3269 37.5626 17.227 37.5626H21.6801V48.6954C21.6801 49.926 22.6759 50.9219 23.9066 50.9219H28.3597C29.5904 50.9219 30.5863 49.926 30.5863 48.6954V37.5626H35.0394C35.9395 37.5626 36.7528 37.0212 37.0963 36.1884C37.442 35.3556 37.2507 34.3988 36.6136 33.7617L27.7075 24.8555ZM59.6799 55.785V53.1483C59.6799 51.9176 58.684 50.9218 57.4534 50.9218C56.2227 50.9218 55.2268 51.9176 55.2268 53.1483V55.3749H50.7737V53.1483C50.7737 51.9176 49.7778 50.9218 48.5471 50.9218C47.3165 50.9218 46.3206 51.9176 46.3206 53.1483V55.3749H44.094C42.8634 55.3749 41.8675 56.3707 41.8675 57.6014C41.8675 58.8321 42.8634 59.828 44.094 59.828H46.3206V73.1873H44.094C42.8634 73.1873 41.8675 74.1831 41.8675 75.4138C41.8675 76.6445 42.8634 77.6404 44.094 77.6404H46.3206V79.8669C46.3206 81.0976 47.3165 82.0935 48.5471 82.0935C49.7778 82.0935 50.7737 81.0976 50.7737 79.8669V77.6404H55.2268V79.8669C55.2268 81.0976 56.2227 82.0935 57.4534 82.0935C58.684 82.0935 59.6799 81.0976 59.6799 79.8669V77.2303C62.2663 76.308 64.133 73.8597 64.133 70.9607C64.133 69.2438 63.4639 67.6921 62.3957 66.5076C63.4639 65.3231 64.133 63.7715 64.133 62.0545C64.133 59.1555 62.2664 56.7072 59.6799 55.785ZM57.4534 73.1873H50.7737V68.7342H57.4534C58.6797 68.7342 59.6799 69.7323 59.6799 70.9607C59.6799 72.1892 58.6797 73.1873 57.4534 73.1873ZM57.4534 64.2811H50.7737V59.828H57.4534C58.6797 59.828 59.6799 60.8261 59.6799 62.0545C59.6799 63.283 58.6797 64.2811 57.4534 64.2811Z" fill="#82E8C9"/>
</g>
<defs>
<filter id="filter0_d" x="0" y="0" width="106.001" height="106" filterUnits="userSpaceOnUse" color-interpolation-filters="sRGB">
<feFlood flood-opacity="0" result="BackgroundImageFix"/>
<feColorMatrix in="SourceAlpha" type="matrix" values="0 0 0 0 0 0 0 0 0 0 0 0 0 0 0 0 0 0 127 0" result="hardAlpha"/>
<feOffset/>
<feGaussianBlur stdDeviation="7.5"/>
<feColorMatrix type="matrix" values="0 0 0 0 0.0451216 0 0 0 0 0.470833 0 0 0 0 0.470833 0 0 0 0.25 0"/>
<feBlend mode="normal" in2="BackgroundImageFix" result="effect1_dropShadow"/>
<feBlend mode="normal" in="SourceGraphic" in2="effect1_dropShadow" result="shape"/>
</filter>
</defs>
</svg>