<svg xmlns:xlink="http://www.w3.org/1999/xlink" xmlns="http://www.w3.org/2000/svg" width="65.45454545454545" height="72" viewBox="0 0 90 99" fill="none">
<g filter="url(#filter0_d)">
<path d="M71.3399 57.0695L51.0235 32.5733C51.4727 25.7257 58.3437 18.4844 58.4141 18.4121C58.9844 17.8399 59.1563 16.9805 58.8477 16.2344C58.5352 15.4863 57.8085 15 57 15H33C32.1915 15 31.4648 15.4863 31.1524 16.2344C30.8439 16.9805 31.0157 17.8399 31.586 18.4121C31.6563 18.4844 38.5275 25.7257 38.9767 32.5733L18.664 57.0675C16.3008 59.9015 15 63.5245 15 67.2667C15 76.0889 22.1757 83.2667 31 83.2667H59C67.8243 83.2667 75 76.0889 75 67.2667C75 63.5245 73.6992 59.9015 71.3399 57.0695Z" fill="#278177"/>
<path d="M37 35.2666H53C54.1055 35.2666 55 34.3721 55 33.2666C55 32.1611 54.1055 31.2666 53 31.2666H37C35.8945 31.2666 35 32.1611 35 33.2666C35 34.3721 35.8945 35.2666 37 35.2666ZM51 51.635V49.2666C51 48.1611 50.1055 47.2666 49 47.2666C47.8945 47.2666 47 48.1611 47 49.2666V51.2666H43V49.2666C43 48.1611 42.1055 47.2666 41 47.2666C39.8945 47.2666 39 48.1611 39 49.2666V51.2666H37C35.8945 51.2666 35 52.1611 35 53.2666C35 54.3721 35.8945 55.2666 37 55.2666H39V67.2666H37C35.8945 67.2666 35 68.1611 35 69.2666C35 70.3721 35.8945 71.2666 37 71.2666H39V73.2666C39 74.3721 39.8945 75.2666 41 75.2666C42.1055 75.2666 43 74.3721 43 73.2666V71.2666H47V73.2666C47 74.3721 47.8945 75.2666 49 75.2666C50.1055 75.2666 51 74.3721 51 73.2666V70.8982C53.3229 70.0698 55 67.8706 55 65.2666C55 63.7243 54.3989 62.3306 53.4395 61.2666C54.3989 60.2026 55 58.8089 55 57.2666C55 54.6626 53.3229 52.4634 51 51.635ZM49 67.2666H43V63.2666H49C50.1016 63.2666 51 64.1631 51 65.2666C51 66.3701 50.1016 67.2666 49 67.2666ZM49 59.2666H43V55.2666H49C50.1016 55.2666 51 56.1631 51 57.2666C51 58.3701 50.1016 59.2666 49 59.2666Z" fill="#82E8C9"/>
</g>
<defs>
<filter id="filter0_d" x="0" y="0" width="90" height="98.2667" filterUnits="userSpaceOnUse" color-interpolation-filters="sRGB">
<feFlood flood-opacity="0" result="BackgroundImageFix"/>
<feColorMatrix in="SourceAlpha" type="matrix" values="0 0 0 0 0 0 0 0 0 0 0 0 0 0 0 0 0 0 127 0" result="hardAlpha"/>
<feOffset/>
<feGaussianBlur stdDeviation="7.5"/>
<feColorMatrix type="matrix" values="0 0 0 0 0.0451216 0 0 0 0 0.470833 0 0 0 0 0.470833 0 0 0 0.25 0"/>
<feBlend mode="normal" in2="BackgroundImageFix" result="effect1_dropShadow"/>
<feBlend mode="normal" in="SourceGraphic" in2="effect1_dropShadow" result="shape"/>
</filter>
</defs>
</svg>