<svg xmlns:xlink="http://www.w3.org/1999/xlink" xmlns="http://www.w3.org/2000/svg" width="72" height="72" viewBox="0 0 102 102" fill="none">
<g filter="url(#filter0_d)">
<path d="M85.3744 23.3363L51.4978 15.0563C51.3333 15.017 51.1673 14.9987 51 15.0001C50.8341 15.0015 50.6667 15.0226 50.5036 15.0634L16.5975 23.3196C15.6581 23.5544 15 24.3982 15 25.3655V30.047C15 31.2113 15.945 32.1563 17.1094 32.1563H23.5781L27.9375 36.3751L32.0156 32.1563H69.9844L74.2031 36.3751L78.4219 32.1563H84.8906C86.055 32.1563 87 31.2113 87 30.047V25.3895C87 24.4107 86.3264 23.5601 85.3744 23.3363ZM84.8906 78.5627H78.4219L73.9219 74.344L69.9844 78.5627H32.0156L27.6562 74.344L23.5781 78.5627H17.1094C15.9436 78.5627 15 79.5063 15 80.6721V84.8909C15 86.0566 15.9436 87.0002 17.1094 87.0002H84.8906C86.0564 87.0002 87 86.0566 87 84.8909V80.6721C87 79.5062 86.0564 78.5627 84.8906 78.5627Z" fill="#278177"/>
<path d="M23.5781 78.5625H32.0156V32.1563H23.5781V78.5625ZM69.9844 32.1563V78.5625H78.4219V32.1563H69.9844ZM57.3281 45.201V42.7031C57.3281 41.5372 56.3847 40.5938 55.2188 40.5938C54.0528 40.5938 53.1094 41.5372 53.1094 42.7031V44.8125H48.8906V42.7031C48.8906 41.5372 47.9472 40.5938 46.7813 40.5938C45.6153 40.5938 44.6719 41.5372 44.6719 42.7031V44.8125H42.5625C41.3966 44.8125 40.4531 45.756 40.4531 46.9219C40.4531 48.0878 41.3966 49.0313 42.5625 49.0313H44.6719V61.6875H42.5625C41.3966 61.6875 40.4531 62.631 40.4531 63.7969C40.4531 64.9628 41.3966 65.9063 42.5625 65.9063H44.6719V68.0156C44.6719 69.1816 45.6153 70.125 46.7813 70.125C47.9472 70.125 48.8906 69.1816 48.8906 68.0156V65.9063H53.1094V68.0156C53.1094 69.1816 54.0528 70.125 55.2188 70.125C56.3847 70.125 57.3281 69.1816 57.3281 68.0156V65.5177C59.7781 64.6441 61.5469 62.3245 61.5469 59.5781C61.5469 57.9515 60.9129 56.4814 59.901 55.3594C60.9129 54.2373 61.5469 52.7672 61.5469 51.1406C61.5469 48.3941 59.7782 46.0746 57.3281 45.201ZM55.2188 61.6875H48.8906V57.4688H55.2188C56.3806 57.4688 57.3281 58.4143 57.3281 59.5781C57.3281 60.7419 56.3806 61.6875 55.2188 61.6875ZM55.2188 53.25H48.8906V49.0313H55.2188C56.3806 49.0313 57.3281 49.9768 57.3281 51.1406C57.3281 52.3044 56.3806 53.25 55.2188 53.25ZM51 27.9375C52.1649 27.9375 53.1094 26.9931 53.1094 25.8281C53.1094 24.6632 52.1649 23.7188 51 23.7188C49.8351 23.7188 48.8906 24.6632 48.8906 25.8281C48.8906 26.9931 49.8351 27.9375 51 27.9375Z" fill="#82E8C9"/>
</g>
<defs>
<filter id="filter0_d" x="0" y="0" width="102" height="102" filterUnits="userSpaceOnUse" color-interpolation-filters="sRGB">
<feFlood flood-opacity="0" result="BackgroundImageFix"/>
<feColorMatrix in="SourceAlpha" type="matrix" values="0 0 0 0 0 0 0 0 0 0 0 0 0 0 0 0 0 0 127 0" result="hardAlpha"/>
<feOffset/>
<feGaussianBlur stdDeviation="7.5"/>
<feColorMatrix type="matrix" values="0 0 0 0 0.0451216 0 0 0 0 0.470833 0 0 0 0 0.470833 0 0 0 0.25 0"/>
<feBlend mode="normal" in2="BackgroundImageFix" result="effect1_dropShadow"/>
<feBlend mode="normal" in="SourceGraphic" in2="effect1_dropShadow" result="shape"/>
</filter>
</defs>
</svg>