<?xml version="1.0" encoding="UTF-8"?>
<svg width="114px" height="106px" viewBox="0 0 114 106" version="1.1" xmlns="http://www.w3.org/2000/svg" xmlns:xlink="http://www.w3.org/1999/xlink">
    <title>Group 17</title>
    <defs>
        <polygon id="path-1" points="0 0.184329932 113.624712 0.184329932 113.624712 103.860263 0 103.860263"></polygon>
    </defs>
    <g id="Page-1" stroke="none" stroke-width="1" fill="none" fill-rule="evenodd">
        <g id="teroxx.finance-–-digital-assets" transform="translate(-262.000000, -1735.000000)">
            <g id="Group-17" transform="translate(262.000000, 1735.000000)">
                <g id="Group-11" transform="translate(1.508971, 56.461562)" fill="#128079">
                    <path d="M-2.91038305e-11,-1.8189894e-12 C0.63692291,8.30368826 4.38292287,12.4555324 11.2379999,12.4555324 C18.0930769,12.4555324 22.5579453,12.4555324 24.6326052,12.4555324 L30.37473,8.48136645 L31.986152,2.2422405 L31.986152,-1.8189894e-12 L-2.91038305e-11,-1.8189894e-12 Z" id="Path-7"></path>
                    <path d="M78.1516062,-1.8189894e-12 C78.7885291,8.30368826 82.534529,12.4555324 89.389606,12.4555324 C96.244683,12.4555324 100.709551,12.4555324 102.784211,12.4555324 L108.526336,8.48136645 L110.137758,2.2422405 L110.137758,-1.8189894e-12 L78.1516062,-1.8189894e-12 Z" id="Path-7-Copy"></path>
                    <path d="M36.5149069,37.6229198 C37.4461263,37.6229198 49.8610743,37.6229198 73.7597508,37.6229198 L71.9035868,30.0503336 L65.3587765,25.2611782 L46.3710948,25.2611782 L38.9272525,27.9403323 L36.5149069,33.4454434 C35.5836876,36.2304277 35.5836876,37.6229198 36.5149069,37.6229198 Z" id="Path-8"></path>
                </g>
                <g id="Group-9">
                    <g id="Group-6" transform="translate(0.000000, 0.562500)">
                        <g id="Group-3" transform="translate(0.000000, 0.037727)">
                            <mask id="mask-2" fill="white">
                                <use xlink:href="#path-1"></use>
                            </mask>
                            <g id="Clip-2"></g>
                            <path d="M100.987037,66.6882435 L90.5577269,66.6882435 C85.785033,66.6882435 81.2493538,63.0395938 81.2493538,56.8729964 L110.296076,56.8729964 C110.296076,63.0486927 105.745306,66.6882435 100.987037,66.6882435 L100.987037,66.6882435 Z M95.5399168,30.8759515 L95.5414703,30.8759515 C95.6914908,30.8828312 95.8412894,30.8848285 96.0046253,30.8759515 L105.822757,53.5443609 L85.7217847,53.5443609 L95.5399168,30.8759515 Z M94.1045135,25.9496864 C94.0650111,24.9818766 94.8379718,24.2060309 95.7722711,24.2060309 C96.6948084,24.2060309 97.4455767,24.9570211 97.4455767,25.8793365 C97.4455767,26.8158551 96.6777203,27.5524203 95.7722711,27.5524203 C94.907212,27.5524203 94.1602164,26.8779938 94.1042916,25.9843065 C94.1040697,25.9727665 94.1051793,25.9612264 94.1045135,25.9496864 L94.1045135,25.9496864 Z M64.1425775,24.3540541 C65.650106,22.7590875 66.6021593,20.7491234 66.9201761,18.6767987 C74.2918199,19.599336 81.4646199,21.5036644 88.3118577,24.3540541 L64.1425775,24.3540541 Z M56.4165213,24.354276 C52.3424437,24.354276 49.0337813,20.9992315 49.1234385,16.8947503 C49.1234385,16.8907557 49.1229947,16.886983 49.1229947,16.8829884 C49.1962296,13.7742794 51.2252791,11.1331639 54.0279552,10.1622472 C58.7908844,8.50514194 63.7144864,12.0987545 63.7144864,17.0563109 C63.7144864,21.0864476 60.4377811,24.354276 56.4165213,24.354276 L56.4165213,24.354276 Z M64.1041846,82.3099056 C68.8768785,82.3099056 73.4125577,85.9585553 73.4125577,92.1249308 L39.4207069,92.1249308 C39.4207069,85.9499002 43.971255,82.3099056 48.7293018,82.3099056 L64.1041846,82.3099056 Z M54.823774,4.37824644 C54.823774,3.90133213 55.2116969,3.51340928 55.6886112,3.51340928 L57.1442095,3.51340928 C57.6211239,3.51340928 58.0090467,3.90133213 58.0090467,4.37824644 L58.0090467,6.54866147 C57.5137127,6.47365122 56.9134088,6.42948838 56.4162994,6.42948838 C55.9293985,6.42948838 55.3288726,6.4725416 54.823774,6.54866147 L54.823774,4.37824644 Z M24.8398675,24.3540541 C31.5901246,21.5444984 38.6590643,19.6534854 45.9204119,18.7163011 C46.2468619,20.788182 47.1840462,22.7639698 48.6891336,24.3540541 L24.8398675,24.3540541 Z M27.9028602,53.5443609 L7.80188752,53.5443609 L17.6200196,30.8759515 C17.7738128,30.8846065 17.9491326,30.8834969 18.0847281,30.8759515 L27.9028602,53.5443609 Z M32.3759569,56.8734403 C32.3759569,63.0486927 27.8254088,66.6884654 23.06714,66.6884654 L12.6376077,66.6884654 C7.86513582,66.6884654 3.32879084,63.0398158 3.32879084,56.8734403 L32.3759569,56.8734403 Z M17.8523739,24.2060309 C18.7782401,24.2060309 19.5607435,24.9714461 19.5203533,25.9492425 C19.5199095,25.9610045 19.5210191,25.9725445 19.5205753,25.9840846 C19.4644285,26.8844295 18.7094437,27.5521983 17.8525958,27.5521983 C16.9467027,27.5521983 16.1792899,26.8158551 16.1792899,25.8791146 C16.1788463,24.9570211 16.9298365,24.2060309 17.8523739,24.2060309 L17.8523739,24.2060309 Z M111.960505,53.5443609 L109.45099,53.5443609 L99.0887008,29.6200846 C100.1222,28.7030953 100.774878,27.3662262 100.774878,25.8793365 C100.774878,23.1210453 98.5310062,20.8769515 95.772493,20.8769515 C94.3610574,20.8769515 93.0847735,21.4659374 92.1739981,22.4097794 C84.1452379,18.7546939 75.6564295,16.3747828 66.900203,15.3241954 C66.3500538,11.9833541 64.2368951,9.16381187 61.338348,7.64252402 L61.338348,4.37824644 C61.338348,2.06557822 59.4566558,0.184329932 57.1444315,0.184329932 L55.6888331,0.184329932 C53.3761649,0.184329932 51.4949166,2.06602207 51.4949166,4.37824644 L51.4949166,7.64252402 C48.5850513,9.16980381 46.4663446,12.0051026 45.9264039,15.3634759 C37.4049727,16.4189457 29.1345374,18.7364962 21.3028455,22.2622 C20.4044979,21.4049083 19.1896868,20.8769515 17.8525958,20.8769515 C15.0940826,20.8769515 12.8502108,23.1212672 12.8502108,25.8793365 C12.8502108,27.3662262 13.5031107,28.7030953 14.536388,29.6200846 L4.17409871,53.5443609 L1.66436213,53.5443609 C0.744931714,53.5443609 -6.65771484e-05,54.2895812 -6.65771484e-05,55.2087896 L-6.65771484e-05,57.3798705 C-6.65771484e-05,64.3480567 5.66942146,70.0173229 12.6376077,70.0173229 L23.066918,70.0173229 C30.0353262,70.0173229 35.7045924,64.3478348 35.7045924,57.3798705 L35.7045924,55.2087896 C35.7045924,54.2895812 34.9595941,53.5443609 34.0401636,53.5443609 L31.5304271,53.5443609 L21.1685816,29.6200846 C21.7600086,29.0952347 22.2260487,28.433014 22.5169908,27.6829115 L49.7452691,27.6829115 L49.7452691,78.9806043 L48.7293018,78.9806043 C42.2267117,78.9806043 36.0916275,83.9951952 36.0916275,92.1730882 C33.9948912,92.4722416 32.3759569,94.2747069 32.3759569,96.4524454 L32.3759569,99.5325262 C32.3759569,101.918873 34.3175684,103.860263 36.7036934,103.860263 L52.5326324,103.860263 C53.4520628,103.860263 54.1970611,103.115486 54.1970611,102.195834 C54.1970611,101.276404 53.4520628,100.531405 52.5326324,100.531405 L36.7036934,100.531405 C36.1624212,100.531405 35.7050362,100.07402 35.7050362,99.5327481 L35.7050362,96.4526673 C35.7050362,95.911617 36.1624212,95.4540101 36.7036934,95.4540101 L76.129793,95.4540101 C76.6712872,95.4540101 77.1284503,95.911617 77.1284503,96.4526673 L77.1284503,99.5327481 C77.1284503,100.07402 76.6712872,100.531405 76.129793,100.531405 L60.3008541,100.531405 C59.3814237,100.531405 58.6364254,101.276404 58.6364254,102.195834 C58.6364254,103.115486 59.3814237,103.860263 60.3008541,103.860263 L76.129793,103.860263 C78.51614,103.860263 80.4575296,101.918873 80.4575296,99.5325262 L80.4575296,96.4524454 C80.4575296,94.2747069 78.8385953,92.4722416 76.741859,92.1730882 C76.741859,84.0673204 70.6691353,78.9806043 64.1044066,78.9806043 L63.0884393,78.9806043 L63.0884393,59.0926786 C63.0884393,58.1734701 62.3432191,57.4282499 61.4240106,57.4282499 C60.5043582,57.4282499 59.7595819,58.1734701 59.7595819,59.0926786 L59.7595819,78.9806043 L53.0752362,78.9806043 L53.0752362,27.1525135 C55.2465389,27.8782044 57.5880572,27.8782044 59.7595819,27.1525135 L59.7595819,51.3251227 C59.7595819,52.2445531 60.5043582,52.9897733 61.4240106,52.9897733 C62.3432191,52.9897733 63.0884393,52.244775 63.0884393,51.3251227 L63.0884393,27.6831334 L91.1083199,27.6831334 C91.399262,28.433014 91.8653021,29.0952347 92.4567291,29.6203065 L82.0946617,53.5445829 L79.5847032,53.5445829 C78.6650509,53.5445829 77.9202745,54.2898031 77.9202745,55.2090116 L77.9202745,57.3800924 C77.9202745,64.3482787 83.5895406,70.0175448 90.5577269,70.0175448 L100.987037,70.0175448 C107.955445,70.0175448 113.624712,64.3480567 113.624712,57.3800924 L113.624712,55.2090116 C113.624712,54.2895812 112.879713,53.5443609 111.960505,53.5443609 L111.960505,53.5443609 Z" id="Fill-1" fill="#1C3435" mask="url(#mask-2)"></path>
                        </g>
                        <path d="M56.4165435,18.6868296 C55.5383909,18.6868296 54.8237962,17.9722349 54.8237962,17.0940823 C54.8237962,16.2159297 55.5383909,15.5015569 56.4165435,15.5015569 C57.2946961,15.5015569 58.0092909,16.2159297 58.0092909,17.0940823 C58.0095127,17.9722349 57.294918,18.6868296 56.4165435,18.6868296 M56.4165435,12.1722557 C53.7024151,12.1722557 51.4947168,14.3801758 51.4947168,17.0938604 C51.4947168,19.8079888 53.7028589,22.0156871 56.4165435,22.0156871 C59.1306719,22.0156871 61.3383702,19.8077669 61.3383702,17.0938604 C61.3385921,14.3799539 59.1306719,12.1722557 56.4165435,12.1722557" id="Fill-4" fill="#1C3435"></path>
                    </g>
                </g>
            </g>
        </g>
    </g>
</svg>