<?xml version="1.0" encoding="UTF-8"?>
<svg width="92px" height="110px" viewBox="0 0 92 110" version="1.1" xmlns="http://www.w3.org/2000/svg" xmlns:xlink="http://www.w3.org/1999/xlink">
    <title>Group 27</title>
    <defs>
        <polygon id="path-1" points="0.0626256984 0.820433335 89.9418296 0.820433335 89.9418296 106.579157 0.0626256984 106.579157"></polygon>
    </defs>
    <g id="Page-1" stroke="none" stroke-width="1" fill="none" fill-rule="evenodd">
        <g id="teroxx.finance-–-digital-assets" transform="translate(-676.000000, -1738.000000)">
            <g id="Group-27" transform="translate(676.500000, 1738.078989)">
                <g id="Group-26">
                    <g id="Group-18" transform="translate(0.499874, 0.000000)">
                        <path d="M72.1197905,18.8143935 L12.0192913,56.5642815 C16.9178322,70.5070333 20.054722,76.8916458 21.4299606,75.7181192 C22.8051991,74.5445926 41.8414427,62.489625 78.5386913,39.5532165 L78.5386913,20.7106345 L72.1197905,18.8143935 Z" id="Path-9" fill="#128079"></path>
                        <mask id="mask-2" fill="white">
                            <use xlink:href="#path-1"></use>
                        </mask>
                        <g id="Clip-2"></g>
                        <path d="M85.9194832,54.3777741 C85.9194832,54.6794501 85.1753492,84.1431372 44.9719972,102.364366 C4.92953911,84.2638076 4.04462291,55.6045898 4.02451117,54.3978858 L4.02451117,12.4247015 C18.8269972,5.82805345 43.5845391,4.88280205 44.9719972,4.84257859 C46.3599581,4.80235512 71.1172486,5.82805345 85.9194832,12.4247015 L85.9194832,54.3777741 Z M88.7954609,9.32749479 C72.9675279,1.72551155 46.1588408,0.860455681 44.9719972,0.820232218 C43.8459916,0.820232218 17.0368017,1.72551155 1.20912011,9.32749479 C0.510740223,9.66034395 0.0647625698,10.3640032 0.0625,11.137802 L0.0625,54.4179976 C0.0625,55.7453719 0.86722067,87.1800088 44.3083101,106.406824 C44.8269413,106.636601 45.4187291,106.636601 45.9376117,106.406824 C89.2178073,87.1800088 89.9219693,55.7051484 89.9418296,54.3978858 L89.9418296,11.137802 C89.939567,10.3640032 89.4940922,9.66034395 88.7954609,9.32749479 L88.7954609,9.32749479 Z" id="Fill-1" fill="#1C3435" mask="url(#mask-2)"></path>
                        <path d="M20.8380698,72.6393775 C17.418824,68.1504389 15.0416173,62.9565842 13.8794106,57.4349082 L73.1285726,20.7106345 C74.2146061,21.072897 75.2805279,21.4751317 76.2861145,21.897478 L76.3663101,38.1678691 L20.8380698,72.6393775 Z M76.3663101,54.2170311 C76.3464497,55.1419194 75.6425391,77.0639585 44.972148,91.0413607 C36.8178464,87.5399082 29.4974274,82.3513328 23.4928184,75.8170311 L76.3663101,42.8941261 L76.3663101,54.2170311 Z M13.5777346,21.897478 C25.0414218,16.9298803 43.7453324,16.2058579 44.972148,16.1455227 C52.7237123,16.4758579 60.4305279,17.4990423 68.000081,19.2022546 L13.5777346,52.949992 L13.5777346,21.897478 Z M79.3028743,18.8002713 C66.9140475,12.7667518 45.9777346,12.1631484 45.1129302,12.1432881 L44.972148,12.1432881 C44.0268966,12.1633998 23.0905838,12.827087 10.7822039,18.8002713 C10.083824,19.1328691 9.63809777,19.8367797 9.6358352,20.6103272 L9.6358352,54.2572546 C9.6358352,55.3030646 10.2794106,80.0201317 44.228014,95.0838188 C44.7466453,95.3135953 45.338433,95.3135953 45.8570642,95.0838188 C79.8257793,80.0201317 80.449243,55.3030646 80.449243,54.2371428 L80.449243,20.6103272 C80.4469804,19.8367797 80.0010028,19.1328691 79.3028743,18.8002713 L79.3028743,18.8002713 Z" id="Fill-4" fill="#1C3435" mask="url(#mask-2)"></path>
                    </g>
                    <g id="Group-12" transform="translate(0.000000, 0.296011)">
                        <g id="Group-6" transform="translate(0.562500, 0.272774)">
                            <g id="Group-3" transform="translate(0.000000, 0.172458)"></g>
                        </g>
                    </g>
                </g>
            </g>
        </g>
    </g>
</svg>