<?xml version="1.0" encoding="UTF-8"?>
<svg width="107px" height="107px" viewBox="0 0 107 107" version="1.1" xmlns="http://www.w3.org/2000/svg" xmlns:xlink="http://www.w3.org/1999/xlink">
    <title>Group 25</title>
    <defs>
        <polygon id="path-1" points="0.0510622609 0.837493079 104.676062 0.837493079 104.676062 105.462409 0.0510622609 105.462409"></polygon>
        <polygon id="path-3" points="0.0510622609 105.462493 104.676062 105.462493 104.676062 0.837493079 0.0510622609 0.837493079"></polygon>
    </defs>
    <g id="Page-1" stroke="none" stroke-width="1" fill="none" fill-rule="evenodd">
        <g id="teroxx.finance-–-digital-assets" transform="translate(-1073.000000, -1735.000000)">
            <g id="Group-25" transform="translate(1073.448938, 1735.287507)">
                <g id="Group-16">
                    <g id="Group-23">
                        <path d="M28.9073123,72.0566844 L20.2915876,79.0496248 C16.112904,70.5050408 14.0010552,66.2327488 13.9560412,66.2327488 C13.9110271,66.2327488 13.2586327,62.952535 11.9988579,56.3921073 L21.703777,56.3921073 L24.6185731,66.2327488 L28.9073123,72.0566844 Z" id="Path-11-Copy-5" fill="#128079"></path>
                        <path d="M27.9084544,45.8686261 L19.2927297,52.8615665 C15.1140462,44.3169825 13.0021973,40.0446905 12.9571833,40.0446905 C12.9121692,40.0446905 12.2597748,36.7644766 11,30.2040489 L20.7049191,30.2040489 L23.6197152,40.0446905 L27.9084544,45.8686261 Z" id="Path-11-Copy-4" fill="#128079" transform="translate(19.454227, 41.532808) rotate(-315.000000) translate(-19.454227, -41.532808) "></path>
                        <path d="M46.3733791,25.6645772 L37.7576544,32.6575176 C33.5789709,24.1129336 31.467122,19.8406416 31.422108,19.8406416 C31.3770939,19.8406416 30.7246995,16.5604277 29.4649247,10 L39.1698438,10 L42.0846399,19.8406416 L46.3733791,25.6645772 Z" id="Path-11-Copy-3" fill="#128079" transform="translate(37.919152, 21.328759) rotate(-271.000000) translate(-37.919152, -21.328759) "></path>
                        <path d="M93.0947999,72.0566844 L84.4790752,79.0496248 C80.3003917,70.5050408 78.1885428,66.2327488 78.1435288,66.2327488 C78.0985147,66.2327488 77.4461203,62.952535 76.1863455,56.3921073 L85.8912646,56.3921073 L88.8060607,66.2327488 L93.0947999,72.0566844 Z" id="Path-11-Copy-8" fill="#128079" transform="translate(84.640573, 67.720866) scale(-1, 1) translate(-84.640573, -67.720866) "></path>
                        <path d="M94.0936578,45.8686261 L85.4779331,52.8615665 C81.2992496,44.3169825 79.1874007,40.0446905 79.1423867,40.0446905 C79.0973726,40.0446905 78.4449782,36.7644766 77.1852034,30.2040489 L86.8901225,30.2040489 L89.8049186,40.0446905 L94.0936578,45.8686261 Z" id="Path-11-Copy-7" fill="#128079" transform="translate(85.639431, 41.532808) scale(-1, 1) rotate(-315.000000) translate(-85.639431, -41.532808) "></path>
                        <path d="M75.6287331,25.6645772 L67.0130084,32.6575176 C62.8343248,24.1129336 60.722476,19.8406416 60.677462,19.8406416 C60.6324479,19.8406416 59.9800535,16.5604277 58.7202787,10 L68.4251978,10 L71.3399939,19.8406416 L75.6287331,25.6645772 Z" id="Path-11-Copy-6" fill="#128079" transform="translate(67.174506, 21.328759) scale(-1, 1) rotate(-271.000000) translate(-67.174506, -21.328759) "></path>
                        <path d="M52.3210798,41.0816254 L47.3010623,67.864932 C48.2580005,72.9267257 49.9313397,75.4576226 52.3210798,75.4576226 C54.7108199,75.4576226 56.4124807,74.1854231 57.4260623,71.6410242 L55.90569,63.0416656 L52.3210798,41.0816254 Z" id="Path-10" fill="#128079"></path>
                        <path d="M28.9073123,72.0566844 L20.2915876,79.0496248 C16.112904,70.5050408 14.0010552,66.2327488 13.9560412,66.2327488 C13.9110271,66.2327488 13.2586327,62.952535 11.9988579,56.3921073 L21.703777,56.3921073 L24.6185731,66.2327488 L28.9073123,72.0566844 Z" id="Path-11" fill="#128079"></path>
                        <path d="M27.9084544,45.8686261 L19.2927297,52.8615665 C15.1140462,44.3169825 13.0021973,40.0446905 12.9571833,40.0446905 C12.9121692,40.0446905 12.2597748,36.7644766 11,30.2040489 L20.7049191,30.2040489 L23.6197152,40.0446905 L27.9084544,45.8686261 Z" id="Path-11-Copy" fill="#128079" transform="translate(19.454227, 41.532808) rotate(-315.000000) translate(-19.454227, -41.532808) "></path>
                        <rect id="Rectangle" fill="#128079" x="28.9073123" y="82.2616806" width="46.9125" height="6"></rect>
                        <mask id="mask-2" fill="white">
                            <use xlink:href="#path-1"></use>
                        </mask>
                        <g id="Clip-2"></g>
                        <path d="M52.3635623,102.087418 C25.9816091,102.103229 4.3358357,81.2037525 3.42606226,54.8374087 L10.1760623,54.8374087 L10.1760623,51.4624087 L3.42606226,51.4624087 C3.81207789,39.6606665 8.47843726,28.4022993 16.5548123,19.7880337 L20.7398123,23.9730337 L23.1360623,21.5767837 L18.9510623,17.3917837 C27.5706013,9.28566652 38.8500623,4.59990089 50.6760623,4.2124087 L50.6760623,9.2749087 L54.0510623,9.2749087 L54.0510623,4.2124087 C65.8528044,4.59842433 77.1111716,9.26499464 85.7254373,17.3411587 L81.5404373,21.5263696 L83.9366873,23.9224087 L88.1216873,19.7376196 C96.2278044,28.3571587 100.91357,39.6364087 101.301062,51.4624087 L96.2385623,51.4624087 L96.2385623,54.8374087 L101.301062,54.8374087 C100.391289,81.2037525 78.7453044,102.103229 52.3635623,102.087418 M52.3635623,0.837408704 C23.4720857,0.837408704 0.0510622609,24.2586431 0.0510622609,53.1499087 C0.0510622609,82.0413853 23.4720857,105.462409 52.3635623,105.462409 C81.2550388,105.462409 104.676062,82.0413853 104.676062,53.1499087 C104.676062,24.2586431 81.2550388,0.837408704 52.3635623,0.837408704" id="Fill-1" fill="#1C3435" mask="url(#mask-2)"></path>
                        <path d="M21.4485412,29.693722 L26.2916662,34.587472 C23.4157443,38.5976048 21.5042287,43.2175579 20.7060412,48.087472 L13.9560412,48.087472 C14.7991584,41.4058157 17.3829318,35.0629251 21.4485412,29.693722 M12.0154162,51.462472 L22.1404162,51.462472 C23.0044162,51.4677454 23.7329943,50.8193235 23.8279162,49.960597 C24.418963,44.6453939 26.4950099,39.6041985 29.8185412,35.414347 C30.3511584,34.7408235 30.2929396,33.7749407 29.6835412,33.169972 L22.4947912,25.964347 C21.8318146,25.309386 20.7632052,25.3159251 20.1082443,25.9789017 C20.075549,26.0120189 20.0441193,26.0466126 20.0141662,26.082472 C14.4040724,32.7567454 11.0178927,41.0160032 10.3279162,49.707472 C10.2983849,50.176386 10.4561662,50.6374954 10.7666662,50.989972 C11.1001584,51.3124954 11.5519865,51.4833548 12.0154162,51.462472" id="Fill-4" fill="#1C3435" mask="url(#mask-2)"></path>
                        <path d="M83.2784779,76.6062009 L78.4353529,71.7124509 C81.3114857,67.7023181 83.2227904,63.082365 84.0211888,58.2124509 L90.7711888,58.2124509 C89.9278607,64.8943181 87.3440873,71.2372087 83.2784779,76.6062009 M92.7118138,54.8374509 L82.5868138,54.8374509 C81.7226029,54.8321775 80.9942357,55.4805993 80.8993138,56.3393259 C80.2966654,61.6515759 78.2218841,66.6898181 74.9084779,70.8855759 C74.3760716,71.5590993 74.4340794,72.5249821 75.0434779,73.1301618 L82.2659779,80.3355759 C82.5802748,80.6473415 83.004681,80.8230525 83.4474388,80.8249509 L83.5316029,80.8249509 C84.0038919,80.8017478 84.4445404,80.5813181 84.7466029,80.2174509 C90.3566966,73.5431775 93.7428763,65.2839196 94.4330638,56.5924509 C94.4625951,56.1237478 94.3046029,55.6624275 93.9943138,55.3099509 C93.6525951,54.978779 93.1868451,54.8070759 92.7118138,54.8374509" id="Fill-6" fill="#1C3435" mask="url(#mask-2)"></path>
                        <path d="M21.4147701,76.6062009 C17.3371373,71.2405837 14.7415513,64.8974821 13.8885201,58.2124509 L20.6385201,58.2124509 C21.4367076,63.082365 23.3482232,67.7023181 26.2241451,71.7124509 L21.4147701,76.6062009 Z M29.8522701,70.8855759 C26.5388638,66.6898181 24.4640826,61.6515759 23.8616451,56.3393259 C23.7667232,55.4805993 23.0381451,54.8321775 22.1741451,54.8374132 L12.0491451,54.8374132 C11.5755904,54.8342868 11.1224966,55.0302478 10.8003951,55.3774509 C10.4898951,55.7299275 10.3321138,56.1912478 10.3616451,56.6599509 C11.0518326,65.3516306 14.4380123,73.6106775 20.0478951,80.2849509 C20.3499576,80.6488181 20.7908169,80.8690368 21.2628951,80.8924509 C21.7056529,80.8907634 22.1298482,80.7150525 22.4441451,80.4030759 L29.6666451,73.1974509 C30.3321529,72.5981775 30.4137857,71.5833571 29.8522701,70.8855759 L29.8522701,70.8855759 Z" id="Fill-8" fill="#1C3435" mask="url(#mask-2)"></path>
                        <path d="M57.4260623,14.6750353 C64.1142576,15.5379806 70.457781,18.1451681 75.8198123,22.2350353 L70.9260623,27.0781603 C66.9188826,24.196754 62.2976638,22.2848165 57.4260623,21.4925353 L57.4260623,14.6750353 Z M55.5529373,24.6481603 C60.8681404,25.2389962 65.9093357,27.315254 70.0991873,30.6387853 C70.3982966,30.8708165 70.7668044,30.9956915 71.1454373,30.993198 C71.5938904,30.9956915 72.0250466,30.8195587 72.3435623,30.5037853 L79.5491873,23.2981603 C79.8864763,22.9591837 80.0645076,22.4930118 80.0385623,22.0156603 C80.0151482,21.5433712 79.7949294,21.1027228 79.4310623,20.8006603 C72.7567888,15.1905665 64.497531,11.8043868 55.8060623,11.1144103 C55.3360935,11.074965 54.8709763,11.2340118 54.5235623,11.5531603 C54.1763591,11.8752618 53.9803982,12.3283556 53.9835623,12.8019103 L53.9835623,22.9269103 C53.9633123,23.8276134 54.6541326,24.5853009 55.5529373,24.6481603 L55.5529373,24.6481603 Z" id="Fill-10" fill="#1C3435" mask="url(#mask-2)"></path>
                        <path d="M47.3010623,14.6750353 L47.3010623,21.4250353 C42.4294607,22.2171056 37.8082419,24.129254 33.8010623,27.0106603 L28.9073123,22.2350353 C34.2693435,18.1451681 40.6128669,15.5379806 47.3010623,14.6750353 L47.3010623,14.6750353 Z M32.3835623,30.5037853 C32.7020779,30.8195587 33.1330232,30.9956915 33.5816873,30.993198 C33.9603201,30.9956915 34.3288279,30.8708165 34.6279373,30.6387853 C38.8177888,27.315254 43.8589841,25.2389962 49.1741873,24.6481603 C50.0331248,24.5530275 50.6813357,23.8246603 50.6761,22.9606603 L50.6761,12.8356603 C50.6792263,12.3621056 50.4832654,11.9088009 50.1360623,11.5869103 C49.7886482,11.2677618 49.323531,11.108715 48.8535623,11.1481603 C40.1620935,11.8381368 31.9028357,15.2243165 25.2285623,20.8344103 C24.8646951,21.1362618 24.6444763,21.5771212 24.6210623,22.0494103 C24.5951169,22.5269728 24.7729373,22.9931446 25.1104373,23.3319103 L32.3835623,30.5037853 Z" id="Fill-12" fill="#1C3435" mask="url(#mask-2)"></path>
                        <path d="M84.0210834,48.0875142 C83.2228959,43.2176001 81.3113802,38.597647 78.4354584,34.5875142 L83.2783724,29.7612642 C87.3574818,35.1038892 89.9642474,41.4227329 90.8385834,48.0875142 L84.0210834,48.0875142 Z M83.4979584,25.4750142 C83.0260912,25.4539204 82.5670912,25.6313189 82.2323334,25.9643892 L75.0098334,33.1700142 C74.4004349,33.774772 74.3422162,34.7408657 74.8748334,35.4143892 C78.1983646,39.6042407 80.2744115,44.645436 80.8654584,49.9606392 C80.9603802,50.8193657 81.6887474,51.4677876 82.5529584,51.4625519 L92.6779584,51.4625519 C93.151513,51.4656782 93.6048177,51.2697173 93.9267084,50.9225142 C94.2372084,50.5700376 94.3949896,50.1087173 94.3654584,49.6400142 C93.6754818,40.9485454 90.2890912,32.6892876 84.6792084,26.0150142 C84.373349,25.6844751 83.947888,25.4902017 83.4979584,25.4750142 L83.4979584,25.4750142 Z" id="Fill-14" fill="#1C3435" mask="url(#mask-2)"></path>
                        <mask id="mask-4" fill="white">
                            <use xlink:href="#path-3"></use>
                        </mask>
                        <g id="Clip-17"></g>
                        <path d="M30.4260623,86.8999931 L74.3010623,86.8999931 L74.3010623,83.5249931 L30.4260623,83.5249931 L30.4260623,86.8999931 Z M75.9885623,80.1499931 L28.7385623,80.1499931 C27.8066404,80.1499931 27.0510623,80.9055712 27.0510623,81.8374931 L27.0510623,88.5874931 C27.0510623,89.5196259 27.8066404,90.2749931 28.7385623,90.2749931 L75.9885623,90.2749931 C76.9204841,90.2749931 77.6760623,89.5196259 77.6760623,88.5874931 L77.6760623,81.8374931 C77.6760623,80.9055712 76.9204841,80.1499931 75.9885623,80.1499931 L75.9885623,80.1499931 Z" id="Fill-16" fill="#1C3435" mask="url(#mask-4)"></path>
                        <path d="M49.0898123,68.7257235 L52.4648123,48.4757235 L55.8398123,68.7257235 C56.0587654,69.9723642 55.7261169,71.2527548 54.9285623,72.2357235 C53.8380154,73.5589345 51.8811482,73.7479345 50.5577263,72.6573876 C50.4039529,72.5306142 50.2628357,72.389286 50.1360623,72.2357235 C49.2537107,71.292622 48.8337341,70.0075907 48.9885623,68.7257235 L49.0898123,68.7257235 Z M47.4023123,74.4292626 C49.6460544,77.1693407 53.6863513,77.5718095 56.4264294,75.3278564 C56.7548591,75.0587001 57.0558669,74.7579032 57.3248123,74.4292626 C58.7737419,72.6886064 59.3901013,70.4018329 59.0123123,68.1686376 L54.0510623,37.6923876 C54.0510623,36.7604657 53.2954841,36.0048876 52.3635623,36.0048876 C51.4316404,36.0048876 50.6760623,36.7604657 50.6760623,37.6923876 L45.6135623,68.1686376 C45.263406,70.4170204 45.9173123,72.7054814 47.4023123,74.4292626 L47.4023123,74.4292626 Z" id="Fill-18" fill="#1C3435" mask="url(#mask-4)"></path>
                    </g>
                    <g id="Group-14" transform="translate(77.593658, 46.000000) scale(-1, 1) translate(-77.593658, -46.000000) translate(55.093658, 12.000000)"></g>
                </g>
                <g id="Group-13" transform="translate(0.051062, 0.837493)">
                    <g id="Group-19">
                        <g id="Group-3"></g>
                    </g>
                </g>
            </g>
        </g>
    </g>
</svg>