<?xml version="1.0" encoding="UTF-8"?>
<svg width="104px" height="104px" viewBox="0 0 104 104" version="1.1" xmlns="http://www.w3.org/2000/svg" xmlns:xlink="http://www.w3.org/1999/xlink">
    <title>Group 26</title>
    <defs>
        <polygon id="path-1" points="0.575 0.457924109 101.595611 0.457924109 101.595611 101.458786 0.575 101.458786"></polygon>
    </defs>
    <g id="Page-1" stroke="none" stroke-width="1" fill="none" fill-rule="evenodd">
        <g id="teroxx.finance-–-strategies)" transform="translate(-1067.000000, -774.000000)">
            <g id="Group-26" transform="translate(1067.500000, 774.159587)">
                <g id="Group-19" transform="translate(2.891734, 2.873407)" fill="#128079">
                    <rect id="Rectangle" x="63.3275088" y="65.7942568" width="9.63062452" height="21.0199505"></rect>
                    <rect id="Rectangle" x="83.6082663" y="45.1411934" width="10" height="41.673014"></rect>
                    <circle id="Oval" cx="32.8279715" cy="49.7596695" r="2.87648014"></circle>
                    <circle id="Oval-Copy" cx="34.6260526" cy="86.8142073" r="2.87648014"></circle>
                    <circle id="Oval-Copy-2" cx="2.87648014" cy="34.7189238" r="2.87648014"></circle>
                    <circle id="Oval-Copy-3" cx="14.508296" cy="22.7840204" r="2.87648014"></circle>
                    <circle id="Oval-Copy-4" cx="31.7495724" cy="22.7840204" r="2.87648014"></circle>
                    <circle id="Oval-Copy-5" cx="47.600081" cy="10.9789386" r="2.87648014"></circle>
                    <polygon id="Path-18" points="77.4974634 -1.8189894e-12 77.4974634 19.5865047 96.563869 19.5865047 96.563869 12.8240025 87.8019012 2.11087967 79.5495655 -1.8189894e-12"></polygon>
                </g>
                <g id="Group-14">
                    <g id="Group-13">
                        <mask id="mask-2" fill="white">
                            <use xlink:href="#path-1"></use>
                        </mask>
                        <g id="Clip-12"></g>
                        <path d="M88.0192455,88.0060181 L94.7456297,88.0060181 L94.7456297,49.3293091 L88.0192455,49.3293091 L88.0192455,88.0060181 Z M77.9296693,88.0060181 L84.6560534,88.0060181 L84.6560534,59.4188854 L77.9296693,59.4188854 L77.9296693,88.0060181 Z M67.840093,88.0060181 L74.5664772,88.0060181 L74.5664772,69.5084616 L67.840093,69.5084616 L67.840093,88.0060181 Z M57.7505168,88.0060181 L64.4769009,88.0060181 L64.4769009,79.5980379 L57.7505168,79.5980379 L57.7505168,88.0060181 Z M37.5713642,91.3692102 C36.6424926,91.3692102 35.8897682,90.6164858 35.8897682,89.6876142 C35.8897682,88.7589527 36.6424926,88.0060181 37.5713642,88.0060181 C38.5000256,88.0060181 39.2529603,88.7589527 39.2529603,89.6876142 C39.2519093,90.6160654 38.4996052,91.3681592 37.5713642,91.3692102 L37.5713642,91.3692102 Z M14.0290196,46.6627182 L14.0290196,52.6925012 C14.0279686,53.6209524 13.2756646,54.3730463 12.3474236,54.3740973 L6.31764057,54.3740973 L14.0290196,46.6627182 Z M98.1088218,47.6477131 C98.1088218,46.7190517 97.3558872,45.966117 96.4272258,45.966117 L86.3376495,45.966117 C85.4089881,45.966117 84.6560534,46.7190517 84.6560534,47.6477131 L84.6560534,56.0556933 L76.2480732,56.0556933 C75.3194118,56.0556933 74.5664772,56.8086279 74.5664772,57.7372893 L74.5664772,66.1452696 L66.158497,66.1452696 C65.2298356,66.1452696 64.4769009,66.8982042 64.4769009,67.8268656 L64.4769009,76.2348458 L56.0689207,76.2348458 C55.1402593,76.2348458 54.3873247,76.9877804 54.3873247,77.9164419 L54.3873247,88.0060181 L42.3269178,88.0060181 C41.3980462,85.3793651 38.5157906,84.0027685 35.8889274,84.93143 C33.2620642,85.8600914 31.8854676,88.7425572 32.8143392,91.3692102 C33.7430006,93.9960734 36.6252563,95.37267 39.2521195,94.4440086 C40.6888331,93.9359564 41.8188656,92.8059238 42.3269178,91.3692102 L44.2977484,91.3692102 L44.2977484,96.4139983 C44.2966974,97.3424496 43.5443934,98.0945434 42.6161524,98.0955944 L5.62103941,98.0955944 C4.69279839,98.0945434 3.94028416,97.3424496 3.93944336,96.4139983 L3.93944336,57.7372893 L12.3474236,57.7372893 C15.1321466,57.7341363 17.3888485,55.4774345 17.3922117,52.6925012 L17.3922117,44.284521 L42.6161524,44.284521 C43.5443934,44.285572 44.2966974,45.037876 44.2977484,45.966117 L44.2977484,47.6477131 L47.6609405,47.6477131 L47.6609405,45.966117 C47.6575773,43.181394 45.4008754,40.9244819 42.6161524,40.921311 L17.1036078,40.921311 C15.7648471,40.9177555 14.480318,41.4497705 13.536312,42.3990314 L2.0537436,53.8815998 C1.10448263,54.8256058 0.572467686,56.1099248 0.576231233,57.4488956 L0.576231233,96.4139983 C0.57940427,99.1989316 2.83610616,101.455633 5.62103941,101.458786 L42.6161524,101.458786 C45.4008754,101.455633 47.6575773,99.1989316 47.6609405,96.4139983 L47.6609405,91.3692102 L101.472014,91.3692102 L101.472014,88.0060181 L98.1088218,88.0060181 L98.1088218,47.6477131 Z" id="Fill-11" fill="#1C3435" mask="url(#mask-2)"></path>
                        <path d="M5.62095533,35.8765618 C6.54961674,35.8765618 7.30255137,36.6294964 7.30255137,37.5581578 C7.30255137,38.4868193 6.54961674,39.2397539 5.62095533,39.2397539 C4.69229391,39.2397539 3.93935928,38.4868193 3.93935928,37.5581578 C3.94041028,36.6297066 4.69271431,35.8776128 5.62095533,35.8765618 M17.3921276,24.1053895 C18.320789,24.1053895 19.0737237,24.8583241 19.0737237,25.7869855 C19.0737237,26.7156469 18.320789,27.4685816 17.3921276,27.4685816 C16.4634662,27.4685816 15.7105316,26.7156469 15.7105316,25.7869855 C15.7115826,24.8585343 16.4638866,24.1064405 17.3921276,24.1053895 M34.2080881,24.1053895 C35.1367495,24.1053895 35.8896841,24.8583241 35.8896841,25.7869855 C35.8896841,26.7156469 35.1367495,27.4685816 34.2080881,27.4685816 C33.2794267,27.4685816 32.526492,26.7156469 32.526492,25.7869855 C32.527543,24.8585343 33.279847,24.1064405 34.2080881,24.1053895 M51.0240485,12.3342172 C51.9527099,12.3342172 52.7056445,13.0871518 52.7056445,14.0158132 C52.7056445,14.9444746 51.9527099,15.6974093 51.0240485,15.6974093 C50.0953871,15.6974093 49.3424525,14.9444746 49.3424525,14.0158132 C49.3435035,13.087362 50.0958075,12.3352682 51.0240485,12.3342172 M5.62095533,42.6029461 C8.40651917,42.6035766 10.6651129,40.3460339 10.6657435,37.56047 C10.6659537,36.8075354 10.4975839,36.0640598 10.1728256,35.3844848 L15.2184545,30.3388558 C17.7309692,31.5397256 20.7414466,30.4765365 21.9425265,27.9638116 C22.0196697,27.8025886 22.0879846,27.6371616 22.1476812,27.4685816 L29.4525345,27.4685816 C30.3807755,30.0950244 33.2621903,31.471621 35.8888433,30.5435901 C37.618575,29.93233 38.8799823,28.4298239 39.1828798,26.6204266 L48.6794832,18.4804507 C51.1463846,19.7754899 54.1961692,18.8253881 55.4909982,16.3584867 C56.7860373,13.8913751 55.8359356,10.8418007 53.368824,9.54676154 C50.9019226,8.25172239 47.8523482,9.20182416 46.557309,11.6687256 C45.8493571,13.0173656 45.7886094,14.6134104 46.391882,16.0116575 L38.3467061,22.9074625 C36.7584387,20.6207021 33.6170071,20.0546348 31.3304568,21.6431125 C30.4617023,22.2463851 29.8046186,23.1077826 29.4525345,24.1053895 L22.1476812,24.1053895 C21.2196504,21.4785263 18.3380254,20.1015093 15.7111622,21.0295401 C13.0845092,21.9575709 11.7074922,24.839196 12.635523,27.4660592 C12.6950095,27.634429 12.7633243,27.7994356 12.8402573,27.9604484 L7.79462841,33.0062875 C5.28043213,31.805628 2.26932421,32.8704987 1.06866464,35.3844848 C-0.131994936,37.8984708 0.932665559,40.909789 3.44686184,42.1104485 C4.12580625,42.4347864 4.8684411,42.6029461 5.62095533,42.6029461" id="Fill-13" fill="#1C3435" mask="url(#mask-2)"></path>
                        <path d="M77.9295852,4.00342223 L77.9295852,22.4238355 C77.929375,22.8356163 78.0813492,23.2328934 78.3556596,23.5397847 L78.3543984,23.5410459 L90.587379,37.3032279 C82.368158,43.3670632 70.7895284,41.6200951 64.7256931,33.4008741 C58.6616475,25.181653 60.4086156,13.6030234 68.6278367,7.53918811 C71.3473979,5.53283383 74.5640809,4.31010331 77.9295852,4.00342223 M98.0315945,20.7422394 L81.2927773,20.7422394 L81.2927773,4.00342223 C90.1739166,4.82677369 97.208243,11.8608899 98.0315945,20.7422394 M93.0996835,35.0673357 L83.3556752,24.1054315 L98.0315945,24.1054315 C97.6582802,28.2076851 95.9222425,32.0667378 93.0996835,35.0673357 M35.8896841,54.3739501 C34.9610227,54.3739501 34.2080881,53.6212257 34.2080881,52.6923541 C34.2080881,51.7636927 34.9610227,51.010758 35.8896841,51.010758 C36.8183455,51.010758 37.5712802,51.7636927 37.5712802,52.6923541 C37.5702292,53.6208053 36.8179251,54.3728991 35.8896841,54.3739501 M66.4873751,39.8956184 L55.3724457,51.010758 L40.6452377,51.010758 C39.7165763,48.384105 36.8341105,47.0075084 34.2074575,47.9361699 C31.5805942,48.8648313 30.2039977,51.7472971 31.1326591,54.3739501 C32.0613205,57.0008133 34.9437863,58.3774099 37.5706496,57.4487485 C39.007153,56.9406963 40.1373957,55.8106637 40.6452377,54.3739501 L44.2976643,54.3739501 L44.2976643,84.6426789 L47.6608564,84.6426789 L47.6608564,54.3739501 L56.0688366,54.3739501 C56.51488,54.3739501 56.942636,54.1969621 57.2579352,53.8816629 L69.3944343,41.7451638 C80.0881239,47.4205505 93.3575983,43.3527696 99.0331951,32.65908 C104.708792,21.9656006 100.640801,8.69591599 89.9473215,3.02031914 C79.2538421,-2.65527771 65.9839473,1.41271332 60.3085607,12.1061928 C55.2545237,21.6286508 57.8746606,33.4122248 66.4873751,39.8956184" id="Fill-14" fill="#1C3435" mask="url(#mask-2)"></path>
                    </g>
                    <g id="Group-16" transform="translate(0.574990, 0.247725)">
                        <polygon id="Fill-1" fill="#1C3435" points="21.8620098 55.8079687 26.9067979 55.8079687 26.9067979 52.4447766 21.8620098 52.4447766"></polygon>
                        <polygon id="Fill-2" fill="#1C3435" points="33.6331821 64.2159489 38.6779702 64.2159489 38.6779702 60.8527568 33.6331821 60.8527568"></polygon>
                        <polygon id="Fill-3" fill="#1C3435" points="21.8620098 64.2159489 30.26999 64.2159489 30.26999 60.8527568 21.8620098 60.8527568"></polygon>
                        <polygon id="Fill-4" fill="#1C3435" points="8.40924141 64.2159489 18.4988177 64.2159489 18.4988177 60.8527568 8.40924141 60.8527568"></polygon>
                        <polygon id="Fill-5" fill="#1C3435" points="18.4988177 72.6239291 38.6779702 72.6239291 38.6779702 69.260737 18.4988177 69.260737"></polygon>
                        <polygon id="Fill-6" fill="#1C3435" points="8.40924141 72.6239291 15.1356256 72.6239291 15.1356256 69.260737 8.40924141 69.260737"></polygon>
                        <polygon id="Fill-7" fill="#1C3435" points="28.5883939 81.0319093 38.6779702 81.0319093 38.6779702 77.6687173 28.5883939 77.6687173"></polygon>
                        <polygon id="Fill-8" fill="#1C3435" points="8.40924141 81.0319093 25.2252018 81.0319093 25.2252018 77.6687173 8.40924141 77.6687173"></polygon>
                        <polygon id="Fill-9" fill="#1C3435" points="18.4988177 89.4398896 28.5883939 89.4398896 28.5883939 86.0766975 18.4988177 86.0766975"></polygon>
                        <polygon id="Fill-10" fill="#1C3435" points="8.40924141 89.4398896 15.1356256 89.4398896 15.1356256 86.0766975 8.40924141 86.0766975"></polygon>
                        <g id="Group-15" transform="translate(0.000000, 0.105100)"></g>
                    </g>
                </g>
            </g>
        </g>
    </g>
</svg>