<?xml version="1.0" encoding="UTF-8"?>
<svg width="102px" height="103px" viewBox="0 0 102 103" version="1.1" xmlns="http://www.w3.org/2000/svg" xmlns:xlink="http://www.w3.org/1999/xlink">
    <title>Group 23</title>
    <defs>
        <polygon id="path-1" points="0 0 100.05 0 100.05 100.049939 0 100.049939"></polygon>
        <polygon id="path-3" points="0 100.05 100.05 100.05 100.05 0 0 0"></polygon>
    </defs>
    <g id="Page-1" stroke="none" stroke-width="1" fill="none" fill-rule="evenodd">
        <g id="teroxx.finance-–-strategies)" transform="translate(-263.000000, -775.000000)">
            <g id="Group-23" transform="translate(263.500000, 775.525000)">
                <g id="Group-17" transform="translate(1.779524, 41.667926)" fill="#128079">
                    <polygon id="Path-12" points="11.1301536 43.6267713 2.91047186e-11 55.7295939 2.91047186e-11 57.6119483 12.4848319 57.6119483 12.4848319 41.9286746"></polygon>
                    <polygon id="Path-13" points="22.4261213 30.3806278 22.4261213 57.6119483 32.2022188 57.6119483 32.2022188 30.3806278"></polygon>
                    <polygon id="Path-14" points="41.9477244 29.6413699 51.3805949 17.6898825 51.3805949 57.0586167 41.1392272 57.0586167"></polygon>
                    <polygon id="Path-15" points="61.5173477 17.6898825 61.5173477 57.0586167 71.0197599 57.0586167 71.0197599 12.3487819 66.2685538 16.6966464"></polygon>
                    <polygon id="Path-16" points="80.6836296 5.40338575 80.6836296 57.0586167 90.5322382 57.0586167 90.5322382 -7.91847375e-16"></polygon>
                </g>
                <g id="Group-6">
                    <g id="Group-12" transform="translate(0.000000, 0.575000)">
                        <path d="M77.4580645,35.5016532 L77.4580645,32.2742339 C80.1271403,32.2742339 82.2991935,30.1021807 82.2991935,27.4331049 C82.2991935,24.7640291 80.1271403,22.5919758 77.4580645,22.5919758 L74.2306452,22.5919758 C73.3398774,22.5919758 72.6169355,21.8690339 72.6169355,20.9782661 C72.6169355,20.0874984 73.3398774,19.3645565 74.2306452,19.3645565 L79.0717742,19.3645565 L79.0717742,20.9782661 L82.2991935,20.9782661 L82.2991935,16.1371371 L77.4580645,16.1371371 L77.4580645,12.9097178 L74.2306452,12.9097178 L74.2306452,16.1371371 C71.5615694,16.1371371 69.3895161,18.3091903 69.3895161,20.9782661 C69.3895161,23.647342 71.5615694,25.8193952 74.2306452,25.8193952 L77.4580645,25.8193952 C78.3488323,25.8193952 79.0717742,26.5423371 79.0717742,27.4331049 C79.0717742,28.3238726 78.3488323,29.0468145 77.4580645,29.0468145 L72.6169355,29.0468145 L72.6169355,27.4331049 L69.3895161,27.4331049 L69.3895161,32.2742339 L74.2306452,32.2742339 L74.2306452,35.5016532 L77.4580645,35.5016532 Z" id="Fill-1" fill="#1C3435"></path>
                        <path d="M61.3209677,24.2056855 C61.3209677,16.1968444 67.8355137,9.68229841 75.8443548,9.68229841 C83.853196,9.68229841 90.3677419,16.1968444 90.3677419,24.2056855 C90.3677419,32.2145266 83.853196,38.7290726 75.8443548,38.7290726 C67.8355137,38.7290726 61.3209677,32.2145266 61.3209677,24.2056855 M93.5951613,24.2056855 C93.5951613,14.4185363 85.631504,6.45487905 75.8443548,6.45487905 C66.0572056,6.45487905 58.0935484,14.4185363 58.0935484,24.2056855 C58.0935484,33.9928347 66.0572056,41.956492 75.8443548,41.956492 C85.631504,41.956492 93.5951613,33.9928347 93.5951613,24.2056855" id="Fill-3" fill="#1C3435"></path>
                        <g id="Group-7">
                            <mask id="mask-2" fill="white">
                                <use xlink:href="#path-1"></use>
                            </mask>
                            <g id="Clip-6"></g>
                            <path d="M83.9129032,96.8225201 L83.9129032,46.9992338 C86.2511685,46.1681734 88.4216081,44.991779 90.3677419,43.5249169 L90.3677419,96.8225201 L83.9129032,96.8225201 Z M12.9096774,86.3640677 L12.9096774,96.8225201 L3.75832984,96.8225201 L12.9096774,86.3640677 Z M54.866129,96.8225201 L61.3209677,96.8225201 L61.3209677,59.7071976 L54.866129,59.7071976 L54.866129,96.8225201 Z M45.183871,71.5405306 L51.6387097,62.9346169 L51.6387097,96.8225201 L45.183871,96.8225201 L45.183871,71.5405306 Z M35.5016129,96.8225201 L41.9564516,96.8225201 L41.9564516,72.616875 L35.5016129,72.616875 L35.5016129,96.8225201 Z M25.8193548,96.8225201 L32.2741935,96.8225201 L32.2741935,72.616875 L25.8193548,72.616875 L25.8193548,96.8225201 Z M22.5919355,96.8225201 L16.1370968,96.8225201 L16.1370968,82.6751274 L22.5919355,75.2988605 L22.5919355,96.8225201 Z M68.4438823,59.7071976 L71.0032258,57.1480557 L71.0032258,96.8225201 L64.5483871,96.8225201 L64.5483871,59.7071976 L68.4438823,59.7071976 Z M80.6854839,47.9238895 L80.6854839,96.8225201 L74.2306452,96.8225201 L74.2306452,53.9206364 L80.1448911,48.0061887 C80.3240129,47.9741162 80.5079758,47.9593911 80.6854839,47.9238895 L80.6854839,47.9238895 Z M54.866129,24.2055846 C54.866129,12.6385137 64.2772839,3.22735884 75.8443548,3.22735884 C87.4114258,3.22735884 96.8225806,12.6385137 96.8225806,24.2055846 C96.8225806,35.7726556 87.4114258,45.1838105 75.8443548,45.1838105 C64.2772839,45.1838105 54.866129,35.7726556 54.866129,24.2055846 L54.866129,24.2055846 Z M100.05,24.2055846 C100.05,10.8587936 89.1913476,-6.05141129e-05 75.8443548,-6.05141129e-05 C62.4973621,-6.05141129e-05 51.6387097,10.8587936 51.6387097,24.2055846 C51.6387097,34.4816879 58.0854798,43.2602685 67.1400048,46.7652459 L63.8801096,50.0249395 L50.9060855,50.0249395 L39.6101177,62.9346169 L20.2730347,62.9346169 L0.429246774,84.4308435 L2.79978629,86.6208493 L21.6850306,66.1620363 L41.0769798,66.1620363 L52.3729476,53.2523588 L65.2180766,53.2523588 L70.6385274,47.831908 C72.1166855,48.1578774 73.6448685,48.3386129 75.2101669,48.3789556 L67.1075289,56.4797782 L52.4455645,56.4797782 L42.7633065,69.3894556 L23.473021,69.3894556 L0,96.2157653 L0,100.049939 L93.5951613,100.049939 L93.5951613,40.6075315 C97.587479,36.2890427 100.05,30.5361677 100.05,24.2055846 L100.05,24.2055846 Z" id="Fill-5" fill="#1C3435" mask="url(#mask-2)"></path>
                        </g>
                        <mask id="mask-4" fill="white">
                            <use xlink:href="#path-3"></use>
                        </mask>
                        <g id="Clip-9"></g>
                        <path d="M9.68225806,50.025 L12.9096774,50.025 L12.9096774,37.1153226 L9.68225806,37.1153226 L9.68225806,50.025 Z M9.68225806,59.7072581 L12.9096774,59.7072581 L12.9096774,53.2524194 L16.1370968,53.2524194 L16.1370968,33.8879032 L12.9096774,33.8879032 L12.9096774,27.4330645 L9.68225806,27.4330645 L9.68225806,33.8879032 L6.45483871,33.8879032 L6.45483871,53.2524194 L9.68225806,53.2524194 L9.68225806,59.7072581 Z" id="Fill-8" fill="#1C3435" mask="url(#mask-4)"></path>
                        <path d="M22.5919355,41.9564516 L25.8193548,41.9564516 L25.8193548,32.2741935 L22.5919355,32.2741935 L22.5919355,41.9564516 Z M22.5919355,51.6387097 L25.8193548,51.6387097 L25.8193548,45.183871 L29.0467742,45.183871 L29.0467742,29.0467742 L25.8193548,29.0467742 L25.8193548,22.5919355 L22.5919355,22.5919355 L22.5919355,29.0467742 L19.3645161,29.0467742 L19.3645161,45.183871 L22.5919355,45.183871 L22.5919355,51.6387097 Z" id="Fill-10" fill="#1C3435" mask="url(#mask-4)"></path>
                        <path d="M35.5016129,30.6604839 L38.7290323,30.6604839 L38.7290323,24.2056452 L35.5016129,24.2056452 L35.5016129,30.6604839 Z M35.5016129,40.3427419 L38.7290323,40.3427419 L38.7290323,33.8879032 L41.9564516,33.8879032 L41.9564516,20.9782258 L38.7290323,20.9782258 L38.7290323,14.5233871 L35.5016129,14.5233871 L35.5016129,20.9782258 L32.2741935,20.9782258 L32.2741935,33.8879032 L35.5016129,33.8879032 L35.5016129,40.3427419 Z" id="Fill-11" fill="#1C3435" mask="url(#mask-4)"></path>
                    </g>
                </g>
            </g>
        </g>
    </g>
</svg>